# xmcd
#
# Track frame offsets: 
#        150
#        14996
#        23541
#        33085
#        41106
#        50647
#        58191
#        65187
#        76849
#        86470
#        91808
#        100407
#        106792
#        116486
#        125273
#        136606
#        145463
#        153390
#        161856
#        170074
#        179957
#        191120
#        203277
#        210586
#        218384
#        227000
#        233380
#        239544
#        245730
#        253173
#        261940
#        272175
#        280047
#        288523
#        294988
#        302662
#        310933
#        319014
#        327849
#
# Disc length: 4417 seconds
#
# Revision: 6
# Processed by: cddbd v1.5.2PL0 Copyright (c) Steve Scherf et al.
# Submitted via: ExactAudioCopyFreeDBPlugin 1.0
#
DISCID=3b113f27
DTITLE=Yuki Kajiura - Sword Art Online Music Collection [Disc 1] Aincr
DTITLE=ad
DYEAR=2016
DGENRE=Anime
TTITLE0=Swordland
TTITLE1=The First Town
TTITLE2=Fight!
TTITLE3=Friendly Feelings
TTITLE4=A Tender Feeling
TTITLE5=Feel Uneasy
TTITLE6=Welcome to this World
TTITLE7=HHe Rules Us
TTITLE8=Death Game
TTITLE9=Stand at Bay
TTITLE10=A Close Battle
TTITLE11=At Our Parting
TTITLE12=Weird Place
TTITLE13=Quiet Strain
TTITLE14=A Tense Situation
TTITLE15=Taut Nerves
TTITLE16=A Strategy Meeting
TTITLE17=March Down
TTITLE18=Gracefully
TTITLE19=Left in Suspense
TTITLE20=Luminous Sword
TTITLE21=Confront Battle
TTITLE22=In Your Past
TTITLE23=A Tiny Love
TTITLE24=Everyday Life
TTITLE25=At Our Parting ~piano only
TTITLE26=Despaired
TTITLE27=A Squabble
TTITLE28=Smile for Me
TTITLE29=At Nightfall
TTITLE30=Survive the Swordland
TTITLE31=No Way
TTITLE32=A Narrow Escape
TTITLE33=With My Friend
TTITLE34=A Tiny Love ~harp only
TTITLE35=We Have to Defeat It
TTITLE36=Friendly Feelings ~piano only
TTITLE37=Critical Phase
TTITLE38=At Our Parting ~Vc only
EXTD=Powerd by gracenote music web API YEAR: 2016
EXTT0=
EXTT1=
EXTT2=
EXTT3=
EXTT4=
EXTT5=
EXTT6=
EXTT7=
EXTT8=
EXTT9=
EXTT10=
EXTT11=
EXTT12=
EXTT13=
EXTT14=
EXTT15=
EXTT16=
EXTT17=
EXTT18=
EXTT19=
EXTT20=
EXTT21=
EXTT22=
EXTT23=
EXTT24=
EXTT25=
EXTT26=
EXTT27=
EXTT28=
EXTT29=
EXTT30=
EXTT31=
EXTT32=
EXTT33=
EXTT34=
EXTT35=
EXTT36=
EXTT37=
EXTT38=
PLAYORDER=
